HIERARCHY
ROOT Hips
{
	OFFSET 0.000000 100.481300 0.000000
	CHANNELS 6 Xposition Yposition Zposition Xrotation Yrotation Zrotation
	JOINT Spine
	{
		OFFSET -0.279200 12.230698 -2.892100
		CHANNELS 3 Xrotation Yrotation Zrotation
		JOINT Spine1
		{
			OFFSET -0.325700 14.269203 -3.374200
			CHANNELS 3 Xrotation Yrotation Zrotation
			JOINT Spine2
			{
				OFFSET -0.372300 16.307602 -0.352600
				CHANNELS 3 Xrotation Yrotation Zrotation
				JOINT Neck
				{
					OFFSET -0.418800 17.814194 8.416900
					CHANNELS 3 Xrotation Yrotation Zrotation
					JOINT Head
					{
						OFFSET 0.000000 7.031097 3.806800
						CHANNELS 3 Xrotation Yrotation Zrotation
						JOINT HeadTop_End
						{
							OFFSET 0.000000 24.646606 12.978600
							CHANNELS 3 Xrotation Yrotation Zrotation
							End Site
							{
								OFFSET 0.000000 27.854965 0.000000
							}
						}
					}
				}
				JOINT LeftShoulder
				{
					OFFSET 16.952999 14.495407 -7.737500
					CHANNELS 3 Xrotation Yrotation Zrotation
					JOINT LeftArm
					{
						OFFSET 9.308998 -2.777710 0.208600
						CHANNELS 3 Xrotation Yrotation Zrotation
						JOINT LeftForeArm
						{
							OFFSET 29.972298 0.000000 0.000000
							CHANNELS 3 Xrotation Yrotation Zrotation
							JOINT LeftHand
							{
								OFFSET 26.026505 0.000000 0.000000
								CHANNELS 3 Xrotation Yrotation Zrotation
								JOINT LeftHandThumb1
								{
									OFFSET 12.240501 -7.147949 9.207150
									CHANNELS 3 Xrotation Yrotation Zrotation
									JOINT LeftHandThumb2
									{
										OFFSET 4.138618 -2.389435 2.389433
										CHANNELS 3 Xrotation Yrotation Zrotation
										JOINT LeftHandThumb3
										{
											OFFSET 2.726913 -1.574387 1.574386
											CHANNELS 3 Xrotation Yrotation Zrotation
											JOINT LeftHandThumb4
											{
												OFFSET 3.941010 -2.275345 2.275342
												CHANNELS 3 Xrotation Yrotation Zrotation
												End Site
												{
													OFFSET -0.005798 5.087799 0.009903
												}
											}
										}
									}
								}
								JOINT LeftHandIndex1
								{
									OFFSET 24.424698 -1.985611 5.953459
									CHANNELS 3 Xrotation Yrotation Zrotation
									JOINT LeftHandIndex2
									{
										OFFSET 6.426697 0.000000 0.000000
										CHANNELS 3 Xrotation Yrotation Zrotation
										JOINT LeftHandIndex3
										{
											OFFSET 5.337898 0.000000 0.000000
											CHANNELS 3 Xrotation Yrotation Zrotation
											JOINT LeftHandIndex4
											{
												OFFSET 4.409401 0.000000 0.000000
												CHANNELS 3 Xrotation Yrotation Zrotation
												End Site
												{
													OFFSET 0.000000 4.409363 0.014373
												}
											}
										}
									}
								}
								JOINT LeftHandMiddle1
								{
									OFFSET 23.810104 0.000000 0.000000
									CHANNELS 3 Xrotation Yrotation Zrotation
									JOINT LeftHandMiddle2
									{
										OFFSET 7.176498 0.000000 0.000000
										CHANNELS 3 Xrotation Yrotation Zrotation
										JOINT LeftHandMiddle3
										{
											OFFSET 6.774902 0.000000 0.000000
											CHANNELS 3 Xrotation Yrotation Zrotation
											JOINT LeftHandMiddle4
											{
												OFFSET 5.403328 0.000000 0.000000
												CHANNELS 3 Xrotation Yrotation Zrotation
												End Site
												{
													OFFSET -0.027702 5.403244 0.017414
												}
											}
										}
									}
								}
								JOINT LeftHandRing1
								{
									OFFSET 22.908401 -0.839279 -6.020567
									CHANNELS 3 Xrotation Yrotation Zrotation
									JOINT LeftHandRing2
									{
										OFFSET 6.337502 0.000000 0.000000
										CHANNELS 3 Xrotation Yrotation Zrotation
										JOINT LeftHandRing3
										{
											OFFSET 5.779297 0.000000 0.000000
											CHANNELS 3 Xrotation Yrotation Zrotation
											JOINT LeftHandRing4
											{
												OFFSET 4.965698 0.000000 0.000000
												CHANNELS 3 Xrotation Yrotation Zrotation
												End Site
												{
													OFFSET 0.000000 4.965668 0.016186
												}
											}
										}
									}
								}
								JOINT LeftHandPinky1
								{
									OFFSET 20.037003 -1.530319 -10.950146
									CHANNELS 3 Xrotation Yrotation Zrotation
									JOINT LeftHandPinky2
									{
										OFFSET 5.254700 0.000000 0.000000
										CHANNELS 3 Xrotation Yrotation Zrotation
										JOINT LeftHandPinky3
										{
											OFFSET 4.810204 0.000000 0.000000
											CHANNELS 3 Xrotation Yrotation Zrotation
											JOINT LeftHandPinky4
											{
												OFFSET 3.647202 0.000000 0.000000
												CHANNELS 3 Xrotation Yrotation Zrotation
												End Site
												{
													OFFSET 0.000000 3.647186 0.011889
												}
											}
										}
									}
								}
							}
						}
					}
				}
				JOINT RightShoulder
				{
					OFFSET -15.141001 14.495407 -7.737500
					CHANNELS 3 Xrotation Yrotation Zrotation
					JOINT RightArm
					{
						OFFSET -9.308998 -2.777710 0.208500
						CHANNELS 3 Xrotation Yrotation Zrotation
						JOINT RightForeArm
						{
							OFFSET -29.972300 0.000000 0.000000
							CHANNELS 3 Xrotation Yrotation Zrotation
							JOINT RightHand
							{
								OFFSET -26.026505 0.000000 0.000000
								CHANNELS 3 Xrotation Yrotation Zrotation
								JOINT RightHandThumb1
								{
									OFFSET -12.240601 -7.148026 9.207092
									CHANNELS 3 Xrotation Yrotation Zrotation
									JOINT RightHandThumb2
									{
										OFFSET -4.138618 -2.389435 2.389433
										CHANNELS 3 Xrotation Yrotation Zrotation
										JOINT RightHandThumb3
										{
											OFFSET -2.726974 -1.574417 1.574421
											CHANNELS 3 Xrotation Yrotation Zrotation
											JOINT RightHandThumb4
											{
												OFFSET -3.941010 -2.275345 2.275343
												CHANNELS 3 Xrotation Yrotation Zrotation
												End Site
												{
													OFFSET 0.005814 5.087799 0.009927
												}
											}
										}
									}
								}
								JOINT RightHandIndex1
								{
									OFFSET -24.424698 -1.985657 5.953444
									CHANNELS 3 Xrotation Yrotation Zrotation
									JOINT RightHandIndex2
									{
										OFFSET -6.426697 0.000000 0.000000
										CHANNELS 3 Xrotation Yrotation Zrotation
										JOINT RightHandIndex3
										{
											OFFSET -5.337898 0.000000 0.000000
											CHANNELS 3 Xrotation Yrotation Zrotation
											JOINT RightHandIndex4
											{
												OFFSET -4.409401 0.000000 0.000000
												CHANNELS 3 Xrotation Yrotation Zrotation
												End Site
												{
													OFFSET 0.000000 4.409363 0.014408
												}
											}
										}
									}
								}
								JOINT RightHandMiddle1
								{
									OFFSET -23.810097 0.000000 0.000000
									CHANNELS 3 Xrotation Yrotation Zrotation
									JOINT RightHandMiddle2
									{
										OFFSET -7.176498 0.000000 0.000000
										CHANNELS 3 Xrotation Yrotation Zrotation
										JOINT RightHandMiddle3
										{
											OFFSET -6.774902 0.000000 0.000000
											CHANNELS 3 Xrotation Yrotation Zrotation
											JOINT RightHandMiddle4
											{
												OFFSET -5.403328 0.000000 0.000000
												CHANNELS 3 Xrotation Yrotation Zrotation
												End Site
												{
													OFFSET 0.027702 5.403244 0.017457
												}
											}
										}
									}
								}
								JOINT RightHandRing1
								{
									OFFSET -22.908302 -0.839325 -6.020576
									CHANNELS 3 Xrotation Yrotation Zrotation
									JOINT RightHandRing2
									{
										OFFSET -6.337502 0.000000 0.000000
										CHANNELS 3 Xrotation Yrotation Zrotation
										JOINT RightHandRing3
										{
											OFFSET -5.779297 0.000000 0.000000
											CHANNELS 3 Xrotation Yrotation Zrotation
											JOINT RightHandRing4
											{
												OFFSET -4.965698 0.000000 0.000000
												CHANNELS 3 Xrotation Yrotation Zrotation
												End Site
												{
													OFFSET 0.000000 4.965668 0.016226
												}
											}
										}
									}
								}
								JOINT RightHandPinky1
								{
									OFFSET -20.037003 -1.530334 -10.950259
									CHANNELS 3 Xrotation Yrotation Zrotation
									JOINT RightHandPinky2
									{
										OFFSET -5.254700 0.000000 0.000000
										CHANNELS 3 Xrotation Yrotation Zrotation
										JOINT RightHandPinky3
										{
											OFFSET -4.810204 0.000000 0.000000
											CHANNELS 3 Xrotation Yrotation Zrotation
											JOINT RightHandPinky4
											{
												OFFSET -3.647202 0.000000 0.000000
												CHANNELS 3 Xrotation Yrotation Zrotation
												End Site
												{
													OFFSET 0.000000 3.647186 0.011917
												}
											}
										}
									}
								}
							}
						}
					}
				}
			}
		}
	}
	JOINT LeftUpLeg
	{
		OFFSET 15.427100 -6.655098 0.678600
		CHANNELS 3 Xrotation Yrotation Zrotation
		JOINT LeftLeg
		{
			OFFSET 4.081073 -39.591068 13.024000
			CHANNELS 3 Xrotation Yrotation Zrotation
			JOINT LeftFoot
			{
				OFFSET -4.081074 -37.707932 -15.979700
				CHANNELS 3 Xrotation Yrotation Zrotation
				JOINT LeftToeBase
				{
					OFFSET 5.346399 -15.068900 20.645000
					CHANNELS 3 Xrotation Yrotation Zrotation
					JOINT LeftToe_End
					{
						OFFSET 2.754700 0.931300 11.300900
						CHANNELS 3 Xrotation Yrotation Zrotation
						End Site
						{
							OFFSET 0.000000 11.669021 0.000000
						}
					}
				}
			}
		}
	}
	JOINT RightUpLeg
	{
		OFFSET -15.569500 -6.655098 0.678600
		CHANNELS 3 Xrotation Yrotation Zrotation
		JOINT RightLeg
		{
			OFFSET -4.081825 -39.591045 13.023800
			CHANNELS 3 Xrotation Yrotation Zrotation
			JOINT RightFoot
			{
				OFFSET 4.081824 -37.707954 -15.979600
				CHANNELS 3 Xrotation Yrotation Zrotation
				JOINT RightToeBase
				{
					OFFSET -5.346400 -15.068900 20.645000
					CHANNELS 3 Xrotation Yrotation Zrotation
					JOINT RightToe_End
					{
						OFFSET -2.754700 0.931300 11.300900
						CHANNELS 3 Xrotation Yrotation Zrotation
						End Site
						{
							OFFSET 0.000000 11.669021 0.000000
						}
					}
				}
			}
		}
	}
}
MOTION
Frames: 4
Frame Time: 0.033333
-340.833160 85.918747 69.272446 175.384682 1.128977 189.630176 2.787142 -4.962207 -1.803840 6.045701 -9.810116 1.238727 6.045708 -9.810124 1.238730 5.349805 1.514777 1.796300 -12.308196 5.016453 -1.715317 -0.000001 0.000001 -0.000000 -4.277082 -17.474983 -12.320810 -2.858427 -26.052189 -60.645318 -15.113240 -95.903205 -3.904915 7.058397 -25.540227 11.598097 -2.512279 3.728841 16.114715 9.916051 28.891212 -3.664545 -5.577248 -11.558009 -2.975535 0.000000 -0.000000 0.000000 5.788392 10.880798 -103.209595 5.924375 5.962595 -97.711675 5.764674 5.047271 -98.317486 0.000001 -0.000001 -0.000000 6.810077 12.756868 -97.195176 7.135735 5.636046 -113.455985 3.547348 5.001974 -69.997138 0.000001 0.000002 -0.000002 7.367925 11.225681 -100.497074 8.745785 3.890669 -126.045390 3.317435 3.946018 -62.167596 -0.000000 -0.000001 -0.000001 2.410148 12.907569 -110.248747 5.112559 5.504208 -95.327133 5.412890 5.672767 -88.032239 0.000001 -0.000001 0.000002 -0.432472 -5.619827 18.939078 33.869798 22.517971 48.359344 97.967589 59.104960 -111.645787 2.381248 3.243684 -6.826075 4.510681 -5.484842 -15.980577 13.505679 -36.761571 4.366179 -5.878941 20.532913 1.226813 0.000001 0.000001 0.000001 6.511589 -2.548583 93.884106 5.460943 -6.005062 92.573905 1.573553 -4.035816 60.915834 -0.000001 -0.000001 0.000001 1.155557 -10.115520 85.784895 5.086922 -6.095379 90.047684 -1.792663 -4.602382 69.143364 0.000000 0.000002 -0.000003 -2.194597 -19.423448 91.845424 6.016224 -4.987212 93.460108 -2.830326 -3.600795 68.507576 -0.000000 0.000000 0.000001 -8.142529 -24.442310 98.303907 3.607329 -5.210258 77.717956 0.391322 -3.595263 85.548959 0.000002 0.000000 0.000000 5.645058 10.467951 -4.152066 32.707529 -0.478282 -0.408407 -17.884034 1.056976 -8.047337 -30.365686 2.060389 6.012547 -0.000000 -0.000001 -0.000000 -33.842973 3.873936 1.304221 64.226174 -13.389403 -6.041317 0.563294 -1.292075 -5.936884 -24.436967 -0.445474 9.729161 -0.000000 -0.000000 0.000000 
-341.911133 88.933205 62.119820 173.609052 4.449207 187.215676 2.505132 -5.535713 -0.561954 5.387027 -10.448509 1.944133 5.387018 -10.448511 1.944138 3.064743 2.245874 2.481463 -10.956513 6.125740 -1.198133 0.000001 0.000003 -0.000000 -4.443825 -18.318803 -12.679188 -0.622944 -29.513012 -58.054477 -11.376542 -98.953008 0.804317 9.405109 -27.330519 17.306629 -1.161775 3.617818 17.379527 10.433232 28.612052 -3.989929 -5.545884 -11.535998 -3.239465 -0.000000 -0.000000 -0.000000 5.868316 11.040357 -102.423037 5.729857 5.985116 -95.554230 5.591417 5.063356 -96.351170 -0.000000 -0.000001 -0.000000 6.761009 12.846759 -96.153702 7.040120 5.674518 -112.293419 3.520210 4.993010 -69.679049 0.000004 0.000003 0.000000 7.255018 11.257397 -99.304496 8.689219 3.939645 -125.248758 3.296635 3.937472 -61.902127 -0.000001 -0.000000 -0.000000 2.309895 12.862019 -109.406298 5.089358 5.503904 -95.074423 5.389060 5.673835 -87.779508 0.000001 -0.000001 -0.000002 -0.427722 -6.232937 17.202931 34.464650 19.940271 48.193337 99.784399 59.394485 -113.953087 2.232508 0.751083 -4.462818 4.726464 -5.784750 -16.037388 13.477005 -36.784499 4.355773 -5.875301 20.539352 1.149870 0.000001 0.000001 0.000001 6.467681 -2.534080 94.003736 5.470256 -6.004621 92.676549 1.580846 -4.042045 61.017830 -0.000002 0.000000 -0.000001 1.134519 -10.132986 85.973469 5.089651 -6.095446 90.077983 -1.786433 -4.607325 69.173656 0.000001 0.000001 -0.000001 -2.147388 -19.448540 92.044162 6.021817 -4.986266 93.522297 -2.830326 -3.600793 68.507590 0.000001 0.000001 -0.000001 -8.174150 -24.471784 98.372530 3.657269 -5.225696 78.299014 0.422805 -3.643363 86.126998 0.000002 0.000002 -0.000001 8.556267 11.683420 -2.150222 28.739623 -0.591844 -0.376863 -6.538155 -2.209134 -9.195681 -36.206884 1.878561 1.953523 -0.000000 0.000001 -0.000000 -34.566788 -0.664256 6.822864 48.702814 -9.219336 -5.715040 -2.561312 -0.369857 -8.505600 -14.347615 1.219231 3.581661 0.000001 0.000000 -0.000000 
-342.634308 90.743881 55.671616 172.057970 7.462381 186.042346 2.197276 -5.742508 0.671859 4.564390 -10.514206 2.113070 4.564385 -10.514200 2.113067 0.754216 2.419435 3.089660 -9.392551 6.182268 -0.365631 -0.000000 0.000001 -0.000000 -4.622939 -18.946084 -13.140247 1.994196 -31.854479 -55.176840 -9.455413 -101.829118 3.883465 10.799159 -29.259523 19.257720 -0.833940 3.694823 17.250278 10.041444 28.828265 -3.745977 -5.537969 -11.530462 -3.305699 0.000001 0.000001 -0.000003 6.005526 11.150392 -102.700357 5.624966 5.994184 -94.394287 5.486994 5.070171 -95.168878 0.000002 -0.000002 -0.000001 6.767230 12.865823 -96.018472 6.971672 5.700692 -111.467096 3.493155 4.983929 -69.361486 0.000003 0.000000 0.000000 7.206667 11.245640 -99.054456 8.646160 3.975944 -124.647674 3.275896 3.928858 -61.637055 0.000003 -0.000000 0.000001 2.249798 12.836321 -109.114478 5.038084 5.502880 -94.509970 5.337025 5.675779 -87.214938 0.000002 -0.000001 0.000001 -0.426994 -6.858447 15.778625 33.703101 16.439852 48.848919 101.936462 59.350697 -116.324842 2.585833 0.246265 -0.670522 5.292018 -5.903399 -15.992680 13.590922 -36.690332 4.393293 -5.858627 20.569576 0.791650 -0.000000 0.000001 0.000003 6.402507 -2.513544 94.447159 5.477076 -6.004297 92.751490 1.586444 -4.046043 61.092552 0.000002 0.000003 -0.000002 1.085456 -10.169331 86.338871 5.098811 -6.095590 90.180094 -1.774267 -4.620964 69.274360 0.000001 0.000001 0.000001 -2.051814 -19.498443 92.443441 6.029890 -4.984913 93.612059 -2.830323 -3.600792 68.507583 0.000001 -0.000001 0.000001 -8.193883 -24.654488 98.985000 3.701425 -5.238861 78.811845 0.450996 -3.685530 86.637193 0.000001 0.000004 -0.000001 11.683224 11.141197 -0.866077 23.527857 -0.264973 -0.467848 5.839288 -3.456175 -11.579406 -49.505805 2.370379 2.776210 0.000000 -0.000000 -0.000000 -33.754436 -4.022666 10.543640 32.057414 -7.949235 -3.847899 1.304955 1.703963 -11.793723 -10.257086 1.705434 -1.197080 -0.000000 -0.000000 0.000000 
-343.126465 90.674004 49.836842 171.789161 9.784538 186.816274 2.011353 -5.826980 1.098975 4.019296 -10.309808 1.484415 4.019296 -10.309802 1.484411 -0.069022 2.162439 3.206653 -8.952611 5.363523 0.749582 -0.000000 0.000000 0.000001 -4.761883 -19.109706 -13.600016 3.656890 -32.659584 -53.875040 0.725171 -103.137660 14.434251 11.242104 -31.109377 18.842506 -2.168045 4.400002 15.677285 8.290198 29.764711 -2.642940 -5.556288 -11.543217 -3.151349 -0.000000 0.000003 0.000002 6.136850 11.149570 -103.921718 5.672946 5.990299 -94.924596 5.533778 5.067390 -95.698491 0.000001 0.000001 -0.000000 6.878310 12.841038 -96.901711 6.956200 5.706480 -111.280529 3.466210 4.974700 -69.044484 -0.000002 -0.000002 -0.000002 7.245857 11.187309 -99.966594 8.625356 3.993032 -124.357404 3.255249 3.920158 -61.372480 -0.000003 0.000001 -0.000003 2.258408 12.843559 -109.584948 4.976457 5.500958 -93.830079 5.274439 5.677455 -86.534788 -0.000002 -0.000003 -0.000001 -0.443075 -7.477234 14.349398 32.733555 12.636146 50.185491 103.802879 59.118511 -118.171917 2.975061 0.846417 2.866484 4.487508 -6.138705 -15.937000 14.203101 -36.186421 4.599447 -5.813976 20.648739 -0.151281 0.000001 0.000002 0.000003 6.282537 -2.477660 95.878535 5.513097 -6.002461 93.149123 1.614687 -4.070431 61.488238 -0.000004 0.000001 -0.000000 1.022344 -10.288594 87.566044 5.111290 -6.095774 90.318870 -1.759428 -4.638820 69.411046 0.000003 -0.000004 0.000002 -1.775881 -19.637453 93.584629 6.040642 -4.983072 93.731594 -2.830328 -3.600792 68.507590 -0.000000 -0.000001 0.000001 -8.041036 -25.331360 101.383797 3.712631 -5.241979 78.939747 0.458090 -3.696020 86.764474 -0.000000 0.000001 0.000001 16.059004 9.484179 -0.339773 18.058950 1.379127 -0.381325 20.105920 -3.705554 -18.981512 -64.464145 -0.058281 0.635792 -0.000000 0.000000 0.000000 -34.755622 -5.970802 11.139480 25.425910 -9.947704 -1.794305 2.549601 1.807216 -9.725756 -7.667465 2.933242 -3.097132 0.000000 -0.000001 0.000000 
